<svg xmlns="http://www.w3.org/2000/svg" width="19.842" height="19.842" viewBox="0 0 19.842 19.842"><defs><style>.a{fill:#00a7ff;}</style></defs><circle class="a" cx="0.775" cy="0.775" r="0.775" transform="translate(14.184 7.363)"/><path class="a" d="M16.742,1.55H15.734V.775a.775.775,0,1,0-1.55,0V1.55H10.657V.775a.775.775,0,0,0-1.55,0V1.55H5.619V.775a.775.775,0,0,0-1.55,0V1.55H3.1A3.1,3.1,0,0,0,0,4.65V16.742a3.1,3.1,0,0,0,3.1,3.1H9.03a.775.775,0,1,0,0-1.55H3.1a1.552,1.552,0,0,1-1.55-1.55V4.65A1.552,1.552,0,0,1,3.1,3.1h.969v.775a.775.775,0,1,0,1.55,0V3.1H9.107v.775a.775.775,0,1,0,1.55,0V3.1h3.527v.775a.775.775,0,1,0,1.55,0V3.1h1.008a1.552,1.552,0,0,1,1.55,1.55V9.068a.775.775,0,1,0,1.55,0V4.65A3.1,3.1,0,0,0,16.742,1.55Z"/><path class="a" d="M274.689,270a4.689,4.689,0,1,0,4.689,4.689A4.694,4.694,0,0,0,274.689,270Zm0,7.828a3.139,3.139,0,1,1,3.139-3.139A3.143,3.143,0,0,1,274.689,277.828Z" transform="translate(-259.537 -259.537)"/><path class="a" d="M372.9,331.589h-.349v-.814a.775.775,0,0,0-1.55,0v1.589a.775.775,0,0,0,.775.775H372.9a.775.775,0,0,0,0-1.55Z" transform="translate(-356.622 -317.211)"/><circle class="a" cx="0.775" cy="0.775" r="0.775" transform="translate(10.812 7.363)"/><circle class="a" cx="0.775" cy="0.775" r="0.775" transform="translate(7.441 10.735)"/><circle class="a" cx="0.775" cy="0.775" r="0.775" transform="translate(4.069 7.363)"/><circle class="a" cx="0.775" cy="0.775" r="0.775" transform="translate(4.069 10.735)"/><circle class="a" cx="0.775" cy="0.775" r="0.775" transform="translate(4.069 14.106)"/><circle class="a" cx="0.775" cy="0.775" r="0.775" transform="translate(7.441 14.106)"/><circle class="a" cx="0.775" cy="0.775" r="0.775" transform="translate(7.441 7.363)"/></svg>